<?xml version="1.0" encoding="utf-8"?>
<!-- Generator: Adobe Illustrator 25.4.1, SVG Export Plug-In . SVG Version: 6.00 Build 0)  -->
<svg version="1.1" id="Layer_1" xmlns="http://www.w3.org/2000/svg" xmlns:xlink="http://www.w3.org/1999/xlink" x="0px" y="0px"
	 viewBox="0 0 200 38" style="enable-background:new 0 0 200 38;" xml:space="preserve">
<style type="text/css">
	.st0{fill:#FFFFFF;}
</style>
<g>
	<path class="st0" d="M25.5,27l-3.4-5.9h6.7L34,30c2.2-3.1,3.6-6.9,3.6-11c0-10.3-8.4-18.7-18.7-18.7S0,8.7,0,19
		c0,4.1,1.3,7.9,3.6,11L18.7,3.8l9,15.6h-6.6l-2.5-4.3L15.2,21h5l3.4,5.9H11.8L7.7,34c3.1,2.3,6.9,3.6,11,3.6s7.8-1.3,10.9-3.5
		L25.5,27z"/>
	<path class="st0" d="M54.3,10.4l9.5,19.7h-3.4l-1.7-3.8h-9L48,30.1h-3.3L54,10.4H54.3z M53,18.8l-2.1,4.8h6.6l-2.1-4.7l-1.1-2.7
		h-0.1L53,18.8z M64.4,17.8h2.9v2.4c0.3-0.8,0.7-1.5,1.4-2s1.4-0.7,2.2-0.7c0.6,0,1,0.1,1.2,0.2l-0.4,2.9c-0.2-0.1-0.5-0.2-1-0.2
		c-0.8,0-1.6,0.3-2.3,0.8c-0.7,0.5-1,1.4-1,2.6v6.3h-2.9L64.4,17.8L64.4,17.8z M73.5,17.8h3v12.3h-3V17.8z M74.9,15.5
		c-0.6,0-1-0.2-1.4-0.6c-0.4-0.4-0.6-0.8-0.6-1.4c0-0.5,0.2-0.9,0.6-1.3c0.4-0.4,0.8-0.5,1.4-0.5c0.5,0,1,0.2,1.4,0.5
		c0.4,0.4,0.6,0.8,0.6,1.3c0,0.6-0.2,1-0.6,1.4C75.9,15.3,75.5,15.5,74.9,15.5z M77.7,17.8H81l2.6,5.5l0.9,2.2l0.9-2.2l2.6-5.5h3.2
		l-6.4,12.3h-0.6L77.7,17.8z M97.6,30.3c-1.1,0-2.1-0.3-3.1-0.8c-0.9-0.5-1.7-1.3-2.2-2.2c-0.6-1-0.8-2.1-0.8-3.4s0.2-2.4,0.7-3.4
		s1.2-1.7,2.1-2.2s2-0.8,3.2-0.8c0.7,0,1.4,0.1,2,0.4c0.6,0.2,1.1,0.6,1.6,0.9c0.4,0.4,0.7,0.7,0.9,1.1l0.1-2.1h2.8v12.3H102
		l-0.1-2.2c-0.3,0.6-0.9,1.2-1.7,1.7C99.5,30.1,98.6,30.3,97.6,30.3z M98.1,27.9c1,0,1.9-0.3,2.6-1s1-1.6,1-2.8v-0.2
		c0-0.8-0.2-1.5-0.5-2.1s-0.8-1.1-1.3-1.4c-0.6-0.3-1.2-0.5-1.8-0.5c-1.1,0-2,0.4-2.6,1.1s-0.9,1.7-0.9,2.9c0,1.2,0.3,2.2,0.9,2.9
		C96.1,27.6,97,27.9,98.1,27.9z M109.8,30.3c-0.5,0-1-0.2-1.4-0.5c-0.4-0.4-0.6-0.8-0.6-1.4s0.2-1,0.5-1.4c0.4-0.4,0.8-0.6,1.4-0.6
		s1,0.2,1.4,0.6s0.6,0.8,0.6,1.4c0,0.5-0.2,1-0.6,1.4C110.8,30.2,110.4,30.3,109.8,30.3z M115,10.4h9.2V13h-6.3v5.6h4.9v2.6h-4.9
		v8.9h-3V10.4H115z M126.2,17.8h3v12.3h-3V17.8z M127.7,15.5c-0.6,0-1-0.2-1.4-0.6c-0.4-0.4-0.6-0.8-0.6-1.4c0-0.5,0.2-0.9,0.6-1.3
		c0.4-0.4,0.8-0.5,1.4-0.5c0.5,0,1,0.2,1.4,0.5c0.4,0.4,0.6,0.8,0.6,1.3c0,0.6-0.2,1-0.6,1.4C128.7,15.3,128.2,15.5,127.7,15.5z
		 M132.4,17.8h2.8V20c0.3-0.7,0.9-1.4,1.6-1.8c0.7-0.5,1.6-0.7,2.6-0.7c1.3,0,2.2,0.3,2.9,0.8s1.1,1.2,1.4,2.2
		c0.2,0.9,0.3,2.2,0.3,3.7v5.9h-2.9v-5.8c0-1.6-0.2-2.7-0.5-3.3c-0.3-0.7-0.9-1-1.9-1c-0.5,0-1.1,0.2-1.6,0.5
		c-0.6,0.3-1,0.8-1.4,1.4s-0.5,1.4-0.5,2.2v6.1h-2.9L132.4,17.8L132.4,17.8z M152.4,30.3c-1.1,0-2.1-0.3-3.1-0.8
		c-0.9-0.5-1.7-1.3-2.2-2.2c-0.6-1-0.8-2.1-0.8-3.4s0.2-2.4,0.7-3.4s1.2-1.7,2.1-2.2c0.9-0.5,2-0.8,3.2-0.8c0.7,0,1.4,0.1,2,0.4
		c0.6,0.2,1.1,0.6,1.6,0.9c0.4,0.4,0.7,0.7,0.9,1.1l0.1-2.1h2.8v12.3H157l-0.1-2.2c-0.3,0.6-0.9,1.2-1.7,1.7
		C154.3,30.1,153.4,30.3,152.4,30.3z M152.9,27.9c1,0,1.9-0.3,2.6-1c0.7-0.7,1-1.6,1-2.8v-0.2c0-0.8-0.2-1.5-0.5-2.1
		s-0.8-1.1-1.3-1.4c-0.6-0.3-1.2-0.5-1.8-0.5c-1.1,0-2,0.4-2.6,1.1s-0.9,1.7-0.9,2.9c0,1.2,0.3,2.2,0.9,2.9
		C150.8,27.6,151.7,27.9,152.9,27.9z M162.6,17.8h2.8V20c0.3-0.7,0.9-1.4,1.6-1.8c0.7-0.5,1.6-0.7,2.6-0.7c1.3,0,2.2,0.3,2.9,0.8
		s1.1,1.2,1.4,2.2c0.2,0.9,0.3,2.2,0.3,3.7v5.9h-2.9v-5.8c0-1.6-0.2-2.7-0.5-3.3c-0.3-0.7-0.9-1-1.9-1c-0.5,0-1.1,0.2-1.6,0.5
		c-0.6,0.3-1,0.8-1.4,1.4s-0.5,1.4-0.5,2.2v6.1h-2.9L162.6,17.8L162.6,17.8z M182.9,30.3c-1.2,0-2.3-0.3-3.3-0.8s-1.7-1.3-2.3-2.3
		s-0.9-2.2-0.9-3.5s0.3-2.4,0.8-3.3c0.5-1,1.3-1.7,2.2-2.2c1-0.5,2.1-0.8,3.3-0.8c0.9,0,1.8,0.1,2.4,0.4c0.7,0.2,1.2,0.5,1.6,0.9
		l-1.3,2.3c-0.7-0.7-1.6-1.1-2.5-1.1c-1.1,0-2,0.3-2.6,1s-0.9,1.6-0.9,2.8c0,1.3,0.3,2.3,0.9,3.1c0.6,0.7,1.5,1.1,2.6,1.1
		c0.6,0,1.1-0.1,1.6-0.2c0.5-0.2,0.9-0.3,1.2-0.6l1,2c-0.4,0.3-0.9,0.6-1.7,0.8C184.5,30.2,183.7,30.3,182.9,30.3z M194.6,30.3
		c-1.5,0-2.7-0.3-3.7-0.9s-1.7-1.4-2.2-2.3c-0.5-1-0.7-2-0.7-3.2c0-1.3,0.3-2.4,0.8-3.4c0.6-1,1.3-1.7,2.3-2.2s2-0.8,3.3-0.8
		c1.9,0,3.3,0.5,4.2,1.6c0.9,1,1.4,2.5,1.4,4.4c0,0.5,0,1-0.1,1.5h-8.8c0.2,1.1,0.6,1.9,1.1,2.4c0.6,0.5,1.4,0.7,2.4,0.7
		c0.9,0,1.6-0.1,2.1-0.2c0.6-0.1,1.1-0.3,1.5-0.6l0.9,2.1c-0.4,0.3-1.1,0.5-1.8,0.7C196.6,30.2,195.7,30.3,194.6,30.3z M197.2,22.9
		c0-1.1-0.2-1.9-0.7-2.3c-0.5-0.5-1.2-0.7-2.1-0.7c-1.9,0-2.9,1-3.2,3H197.2z"/>
</g>
</svg>
